 http://beeimg.com/images/i27461019591.jpg

Selena Gomez is all grown up. That's a message the former Disney star drives home in the new clip for ΓÇ£Come & Get It,ΓÇ¥ which premiered Tuesday.

Gomez steps out as a confident, sassy pop artist, with a good handle on where she wants to be in her career.

General
Complete name                            : Selena Gomez - Come & Get It (WEB-DL[1080P]) {1337x}/Selena Gomez - Come & Get It.mp4
Format                                   : MPEG-4
Format profile                           : Base Media / Version 2
Codec ID                                 : mp42
File size                                : 132 MiB
Duration                                 : 4mn 49s
Overall bit rate mode                    : Variable
Overall bit rate                         : 3 821 Kbps
Encoded date                             : UTC 2013-05-02 02:17:13
Tagged date                              : UTC 2013-05-02 02:17:13

Video
ID                                       : 1
Format                                   : AVC
Format/Info                              : Advanced Video Codec
Format profile                           : High@L4.0
Format settings, CABAC                   : Yes
Format settings, ReFrames                : 1 frame
Codec ID                                 : avc1
Codec ID/Info                            : Advanced Video Coding
Duration                                 : 4mn 49s
Bit rate                                 : 3 626 Kbps
Maximum bit rate                         : 8 746 Kbps
Width                                    : 1 920 pixels
Height                                   : 1 080 pixels
Display aspect ratio                     : 16:9
Frame rate mode                          : Constant
Frame rate                               : 23.976 fps
Color space                              : YUV
Chroma subsampling                       : 4:2:0
Bit depth                                : 8 bits
Scan type                                : Progressive
Bits/(Pixel*Frame)                       : 0.073
Stream size                              : 125 MiB (95%)
Tagged date                              : UTC 2013-05-02 02:17:32

Audio
ID                                       : 2
Format                                   : AAC
Format/Info                              : Advanced Audio Codec
Format profile                           : LC
Codec ID                                 : 40
Duration                                 : 4mn 49s
Bit rate mode                            : Variable
Bit rate                                 : 192 Kbps
Maximum bit rate                         : 201 Kbps
Channel(s)                               : 2 channels
Channel positions                        : Front: L R
Sampling rate                            : 44.1 KHz
Compression mode                         : Lossy
Stream size                              : 6.62 MiB (5%)
Title                                    : IsoMedia File Produced by Google, 5-11-2011
Encoded date                             : UTC 2013-05-02 02:17:25
Tagged date                              : UTC 2013-05-02 02:17:32

Screenshots 
http://beeimg.com/images/a60919330971.jpg 
http://beeimg.com/images/s90786361122.jpg 
http://beeimg.com/images/r43637312101.jpg

Thanks Youtube. seed for the others :)